<?xml version="1.0" encoding="UTF-8"?>
<svg xmlns="http://www.w3.org/2000/svg" width="290" height="160" viewBox="0 0 290 160" fill="none">
  <path fill-rule="evenodd" clip-rule="evenodd" d="M125.889 122.349C126.529 122.349 126.689 122.67 126.689 122.99C126.689 123.31 126.369 123.47 126.049 123.47L126.689 124.431H126.369L125.729 123.47H125.248V124.431H124.928V122.349H125.889ZM125.248 123.31H125.569C125.889 123.31 126.369 123.31 126.369 122.83C126.369 122.509 126.209 122.509 125.889 122.509H125.248V123.31Z" fill="#ffffff"></path>
  <path fill-rule="evenodd" clip-rule="evenodd" d="M123.807 123.47C123.807 122.349 124.608 121.549 125.729 121.549C126.689 121.549 127.49 122.349 127.65 123.47C127.65 124.591 126.849 125.391 125.729 125.391C124.608 125.391 123.807 124.591 123.807 123.47ZM124.128 123.47C124.128 124.271 124.768 125.071 125.729 125.071C126.529 125.071 127.33 124.431 127.33 123.47C127.33 122.67 126.689 121.869 125.729 121.869C124.768 121.869 124.128 122.509 124.128 123.47Z" fill="#ffffff"></path>
  <path fill-rule="evenodd" clip-rule="evenodd" d="M108.437 51.7406C108.597 51.5806 109.077 51.2603 109.558 51.5806C109.558 51.5806 111.799 52.2209 113.08 53.662C113.08 53.662 113.08 56.2237 111.959 57.3445C111.159 59.9063 109.237 64.8697 107.956 67.2714C106.911 68.6155 106.353 69.7158 105.812 70.7835C105.192 72.0051 104.595 73.184 103.313 74.6364C106.265 87.0075 106.626 90.2445 107.211 95.5103C107.293 96.2418 107.378 97.0126 107.476 97.8524C107.636 104.417 107.796 109.38 107.956 111.782C107.796 111.782 106.836 111.942 106.035 112.102C106.502 112.452 107.053 113.057 107.442 113.483C107.587 113.642 107.709 113.776 107.796 113.863C109.077 114.824 108.597 115.465 108.597 115.465C108.597 115.465 108.597 115.625 108.116 115.785C106.836 116.105 102.192 114.984 102.192 114.984C101.552 114.344 101.712 113.543 101.872 112.743C101.872 111.462 102.192 106.979 102.673 102.496C100.381 104.915 97.9876 107.03 95.5736 109.164C94.9521 109.714 94.3293 110.264 93.7066 110.821C93.1462 110.661 92.7459 110.421 92.3457 110.181C91.9454 109.941 91.5451 109.701 90.9847 109.541C90.2359 110.347 89.6322 110.905 89.1362 111.363C88.2535 112.178 87.7122 112.678 87.3021 113.703C87.3021 113.863 86.8218 115.304 86.6618 115.304C86.6618 115.304 86.5016 115.465 86.0213 115.304C85.0607 114.984 84.9005 113.383 85.0607 112.583C85.3808 110.981 86.1813 109.541 86.9819 108.58C87.1421 108.26 87.4623 107.459 87.4623 107.459C87.7281 106.661 88.4356 106.526 89.0346 106.412C89.157 106.388 89.2749 106.366 89.3836 106.338C91.1448 104.737 99.1504 98.653 100.271 98.1727C100.357 97.402 100.809 97.1351 101.113 96.9556C101.377 96.7994 101.53 96.7093 101.232 96.4115C101.232 96.4115 99.6307 91.6082 98.5099 89.5268C95.788 85.3638 97.3891 82.4819 97.3891 82.4819C97.4522 82.4187 97.4656 82.3556 97.4587 82.2925C97.4479 82.1955 97.3891 82.0985 97.3891 82.0015C97.2664 81.7971 97.102 81.4987 96.8931 81.1196C96.2841 80.0142 95.2973 78.2234 93.8667 76.0774C93.7883 75.9468 93.68 75.7862 93.5543 75.6C92.9105 74.6452 91.8114 73.0158 91.9454 71.2741C91.9454 70.7938 92.2656 69.673 92.906 68.7124C91.7852 68.0719 89.864 66.6309 89.864 65.1899C89.5437 63.9091 90.1841 62.308 91.4651 61.5074C92.7459 60.8669 94.5071 61.027 95.788 61.5074C95.9351 62.0961 96.1499 62.448 96.4479 62.9362C96.7983 63.5103 97.2638 64.2728 97.8695 65.8303C98.4742 65.2256 99.4716 64.9778 100.524 64.7162C101.702 64.4236 102.948 64.1138 103.793 63.2686C104.36 62.7016 105.06 62.2508 105.754 61.8039C107.215 60.8626 108.648 59.9391 108.757 57.985C109.159 56.6775 108.867 55.7491 108.593 54.8823C108.432 54.3691 108.277 53.8776 108.277 53.3417V52.8614L90.8246 41.8138C90.6832 42.0258 90.5419 42.3159 90.3902 42.6271C89.8547 43.7259 89.1904 45.0889 87.9426 44.2154C87.4623 44.0554 86.9819 43.575 87.1421 43.2548C87.6224 42.4543 89.3836 40.2127 90.6645 40.8531L108.437 51.7406ZM100.431 68.232C100.751 68.8725 101.392 70.6336 101.392 70.7938C102.032 70.4736 104.594 66.6309 104.434 66.4708C104.434 66.3107 104.274 65.8303 104.274 65.8303C104.274 65.8303 100.912 68.0719 100.431 68.232Z" fill="#ffffff"></path>
  <path d="M75.1325 64.7095V54.3024C72.5708 54.3024 71.7702 55.9035 71.6101 58.1451H69.5287V52.2209H84.8992V58.1451H82.8178C82.8178 55.7434 82.1774 54.3024 79.4555 54.3024V64.7095C79.4555 65.35 79.7758 65.6703 80.4161 65.6703H82.4976V67.7517H72.0904V65.6703H74.1719C74.8123 65.6703 75.1325 65.35 75.1325 64.7095Z" fill="#ffffff"></path>
  <path fill-rule="evenodd" clip-rule="evenodd" d="M69.8489 71.7544H79.6156C83.2981 71.7544 85.5397 73.0353 85.6998 76.2375C85.6998 79.4397 83.4583 80.5605 79.1353 80.5605H76.4134V84.243C76.4134 84.8835 76.7336 85.2037 77.3741 85.2037H78.9752V87.2852H69.8489V85.2037H71.2898C71.9303 85.2037 72.2505 84.8835 72.2505 84.243V74.7965C72.2505 74.1561 71.9303 73.8359 71.2898 73.8359H69.8489V71.7544ZM76.5736 78.4791H78.4948C80.2561 78.4791 81.2167 77.6785 81.3769 76.2375C81.3769 74.7965 80.2561 73.8359 78.9752 73.8359H76.5736V78.4791Z" fill="#ffffff"></path>
  <path d="M77.5342 90.6474C78.655 90.6474 81.2167 91.2879 82.1774 92.2486L82.6577 91.1278H84.7391V97.3721H82.6577C82.6577 95.1305 81.3769 93.0491 78.815 93.0491C76.2533 93.0491 74.8123 94.8103 74.8123 98.9732C74.8123 102.496 75.773 104.897 78.9752 104.897C81.3769 104.897 82.6577 102.816 82.6577 100.734H84.7391C84.5791 104.897 82.1774 106.979 77.8544 106.979C73.0511 106.979 69.6887 104.257 69.6887 98.813C69.6887 93.8497 73.0511 90.6474 77.5342 90.6474Z" fill="#ffffff"></path>
  <path fill-rule="evenodd" clip-rule="evenodd" d="M112.76 34.4487C118.844 34.4487 123.967 39.5723 123.967 45.8165V114.184C123.967 120.428 119.004 125.552 112.76 125.552H69.3698C63.1255 125.552 58.002 120.428 58.002 114.184V45.8165C58.002 39.5723 62.9653 34.4487 69.2097 34.4487H112.76ZM112.76 122.83C117.563 122.83 121.406 118.827 121.406 114.024V45.8165C121.406 40.8531 117.563 37.0105 112.76 37.0105H69.0496C64.2463 37.0105 60.4036 41.0132 60.4036 45.8165V114.024C60.4036 118.987 64.4064 122.83 69.2097 122.83H112.76Z" fill="#ffffff"></path>
  <path d="M174.397 60.9902C174.464 60.9998 174.53 61.0094 174.599 61.0193C176.376 61.2766 178.147 61.5664 179.911 61.9002C180.993 62.1029 182.085 62.2679 183.189 62.2551C183.257 62.2546 183.326 62.2541 183.397 62.2535C184.096 62.2425 184.693 62.1784 185.312 61.8379C185.51 61.739 185.698 61.7065 185.918 61.6908C185.969 61.7165 186.021 61.7421 186.074 61.7686C186.041 62.4178 185.541 62.8857 185.095 63.3158C183.389 64.8101 181.193 65.7366 178.912 65.6608C178.596 65.6328 178.283 65.5897 177.969 65.5438C177.876 65.5303 177.783 65.5168 177.687 65.5029C176.248 65.2855 174.825 64.98 173.399 64.6899C171.942 64.3936 170.487 64.0993 169.017 63.875C168.916 63.8595 168.816 63.844 168.712 63.828C166.704 63.5331 164.624 63.5562 162.642 64.0261C162.569 64.0376 162.496 64.0492 162.421 64.0611C162.056 64.1496 161.87 64.3083 161.666 64.6172C161.448 64.9795 161.264 65.3561 161.086 65.7387C161.058 65.7981 161.03 65.8575 161.001 65.9187C159.543 69.0797 159.029 72.5195 158.876 75.9698C158.766 78.4081 158.543 80.8438 158.184 83.259C158.091 83.9232 158.184 84.4891 158.39 85.122C158.92 86.8728 159.153 88.8949 158.517 90.6489C158.488 90.732 158.458 90.8151 158.429 90.9007C157.716 92.7585 156.129 94.1406 154.342 94.9407C151.028 96.3547 147.419 96.5309 143.917 95.8238C143.794 95.7999 143.671 95.7797 143.547 95.7642C143.329 95.7296 143.153 95.6915 143.009 95.5154C142.924 95.3496 142.862 95.1846 142.802 95.0082C142.777 94.9419 142.753 94.8757 142.727 94.8074C141.469 91.3027 141.469 91.3027 141.469 90.1819C141.938 90.33 142.386 90.5042 142.836 90.7024C144.256 91.3107 145.714 91.7514 147.229 92.0501C147.308 92.0658 147.386 92.0814 147.467 92.0976C149.501 92.3676 151.465 91.565 153.079 90.3596C153.286 90.2004 153.488 90.0363 153.69 89.8705C153.754 89.8184 153.819 89.7663 153.885 89.7127C154.348 89.3199 154.721 88.8715 155.092 88.3914C155.145 88.325 155.198 88.2586 155.252 88.1901C156.12 87.0611 156.692 85.6597 156.96 84.2657C156.97 84.2164 156.98 84.1671 156.99 84.1163C157.072 83.6149 156.97 83.2682 156.78 82.8043C156.753 82.7332 156.725 82.6621 156.697 82.5889C156.638 82.4375 156.578 82.2863 156.518 82.1353C156.392 81.8194 156.27 81.5021 156.147 81.1848C156.087 81.0273 156.026 80.8699 155.965 80.7125C154.599 77.1886 153.186 72.6575 154.729 68.9933C155.673 66.9817 157.467 65.6024 159.373 64.571C159.458 64.5246 159.544 64.4781 159.632 64.4302C161.45 63.4812 161.45 63.4812 162.098 63.4812C162.125 63.4154 162.125 63.4154 162.153 63.3483C162.867 62.0774 164.682 61.5019 165.99 61.1343C168.737 60.4058 171.616 60.5882 174.397 60.9902Z" fill="#ffffff"></path>
  <path d="M231.882 75.508C231.92 75.5465 231.959 75.585 231.998 75.6247C231.962 75.771 231.962 75.771 231.843 75.9361C231.618 76.0008 231.41 76.0475 231.181 76.0869C230.149 76.2931 229.38 76.6888 228.726 77.5456C227.977 78.6743 227.754 79.8246 227.829 81.1566C227.863 81.8958 227.886 82.6346 227.891 83.3746C227.892 83.5307 227.894 83.6868 227.897 83.8428C227.902 85.3454 227.527 86.6856 226.515 87.8269C225.531 88.6913 224.354 89.0949 223.046 89.1697C222.939 89.1758 222.939 89.1758 222.829 89.1821C222.407 89.1952 222.077 89.1971 221.723 88.9361C221.65 88.7707 221.65 88.7707 221.645 88.6248C221.793 88.4766 222.013 88.5171 222.212 88.5006C223.111 88.4251 224.009 88.3021 224.666 87.6225C224.905 87.1961 224.848 86.6624 224.847 86.1879C224.847 86.1103 224.847 86.0327 224.847 85.9527C224.847 85.7885 224.847 85.6243 224.847 85.4601C224.846 85.2129 224.847 84.9657 224.847 84.7186C224.848 83.8377 224.83 82.964 224.759 82.0858C224.516 82.3199 224.307 82.5462 224.123 82.8296C224.08 82.8962 224.036 82.9627 223.991 83.0313C223.923 83.1365 223.923 83.1365 223.854 83.2438C223.021 84.5113 222.134 85.7218 221.1 86.8343C221.052 86.888 221.003 86.9417 220.953 86.997C219.798 88.2224 218.148 88.9308 216.473 89.0298C216.336 89.0316 216.336 89.0316 216.196 89.0334C216.104 89.0355 216.013 89.0375 215.919 89.0395C215.625 89.0115 215.437 88.9273 215.184 88.7805C215.21 88.652 215.235 88.5236 215.262 88.3912C215.571 88.3159 215.849 88.3124 216.167 88.3231C216.939 88.3272 217.671 88.1625 218.298 87.6906C218.972 87.0028 219.071 86.1713 219.12 85.2483C219.125 85.1572 219.125 85.1572 219.13 85.0642C219.179 84.0664 219.164 83.0812 219.076 82.0858C218.731 82.5534 218.394 83.0262 218.063 83.504C217.567 84.2188 217.058 84.915 216.507 85.5888C216.474 85.6298 216.441 85.6707 216.408 85.7129C215.617 86.6945 214.729 87.7564 213.627 88.3912C213.556 88.4341 213.484 88.4769 213.411 88.5211C212.747 88.8887 211.972 89.1449 211.214 88.941C210.766 88.7515 210.517 88.4255 210.328 87.9874C210.261 87.5758 210.267 87.1725 210.28 86.7565C210.083 86.9512 209.889 87.1469 209.701 87.3491C208.734 88.3679 207.49 89.0754 206.057 89.1162C205.542 89.1092 205.088 88.9947 204.686 88.6603C204.12 88.0501 204.026 87.2735 204.036 86.4701C204.195 83.969 205.763 81.0302 207.244 79.0499C207.185 79.0836 207.127 79.1173 207.067 79.1521C206.544 79.4364 206.129 79.6301 205.531 79.517C205.306 79.4458 205.09 79.3661 204.873 79.2737C204.653 79.1982 204.516 79.1711 204.286 79.2056C204.091 79.3328 204.091 79.3328 203.911 79.5121C203.819 79.5974 203.819 79.5974 203.725 79.6845C203.234 80.1849 202.804 80.6734 202.471 81.2928C202.433 81.3623 202.396 81.4317 202.357 81.5033C201.777 82.6085 201.31 83.7706 200.823 84.9186C200.595 85.4556 200.366 85.992 200.131 86.526C200.107 86.583 200.082 86.6399 200.056 86.6986C199.495 87.9672 198.442 88.5886 197.202 89.0918C196.561 89.3376 195.939 89.3737 195.256 89.3254C195.204 89.2997 195.153 89.274 195.1 89.2475C195.071 89.0772 195.071 89.0772 195.1 88.8583C195.298 88.6598 195.495 88.5141 195.732 88.3654C197.207 87.4377 197.626 85.8014 198.097 84.2217C198.193 83.9036 198.29 83.5856 198.387 83.2678C198.41 83.1896 198.434 83.1115 198.459 83.031C198.632 82.4679 198.816 81.9095 199.009 81.353C199.033 81.2814 199.058 81.2097 199.084 81.1359C199.772 79.176 200.713 77.4353 202.651 76.481C203.722 76.0075 204.972 75.5441 206.154 75.7804C206.18 75.8832 206.205 75.9859 206.232 76.0918C205.927 76.2307 205.636 76.3416 205.312 76.4275C204.42 76.6951 203.925 77.1924 203.429 77.9601C203.375 78.0627 203.322 78.166 203.274 78.2714C203.541 78.1155 203.798 77.9474 204.053 77.7721C205.887 76.5196 205.887 76.5196 206.699 76.5589C207.016 76.687 207.254 76.9296 207.505 77.1579C207.74 77.3445 207.995 77.3686 208.289 77.3638C208.989 77.2712 209.596 76.9671 210.151 76.5467C210.847 76.0624 211.546 75.7648 212.396 75.761C212.456 75.7606 212.516 75.7602 212.578 75.7599C212.89 75.7628 213.143 75.7778 213.432 75.9069C213.913 76.1088 214.457 75.9501 214.956 75.8783C215.442 75.8132 215.857 75.8011 216.274 76.0918C216.676 76.5614 216.779 77.1515 216.759 77.7576C216.661 78.8266 216.292 79.7781 215.885 80.7625C215.849 80.8475 215.814 80.9325 215.778 81.0201C215.23 82.3353 214.631 83.6215 213.996 84.8969C213.37 86.0098 213.37 86.0098 213.316 87.2236C214.168 87.1388 214.737 86.2752 215.256 85.6509C215.665 85.1502 216.049 84.6323 216.429 84.1098C216.468 84.0573 216.506 84.0048 216.546 83.9508C217.435 82.7375 218.182 81.4574 218.886 80.13C220.185 77.6833 220.185 77.6833 221.022 76.8702C221.063 76.827 221.104 76.7837 221.146 76.7392C222.067 75.8387 223.693 75.4556 224.934 75.4544C224.99 75.4535 225.046 75.4525 225.104 75.4516C225.248 75.4512 225.393 75.4595 225.537 75.469C225.589 75.5204 225.64 75.5718 225.693 75.6247C225.673 75.8242 225.673 75.8242 225.615 76.014C225.426 76.1084 225.25 76.1174 225.042 76.138C224.05 76.2392 223.337 76.483 222.657 77.2595C221.911 78.4732 222.182 80.2953 222.18 81.6674C222.18 81.7357 222.18 81.804 222.18 81.8743C222.179 82.0707 222.179 82.2671 222.18 82.4635C222.179 82.5229 222.179 82.5822 222.179 82.6434C222.18 82.9093 222.184 83.1551 222.268 83.4092C222.536 83.3198 222.554 83.2812 222.69 83.0473C222.724 82.9888 222.759 82.9302 222.795 82.8699C222.849 82.7756 222.849 82.7756 222.905 82.6794C223.19 82.1998 223.484 81.7389 223.819 81.2922C224.013 81.0295 224.196 80.7601 224.379 80.49C226.021 78.088 227.53 76.0995 230.519 75.469C231.513 75.2869 231.513 75.2869 231.882 75.508ZM209.742 80.1406C208.513 81.8783 206.737 84.9626 207.01 87.1457C207.115 87.3923 207.115 87.3923 207.322 87.5349C207.978 87.5735 208.489 87.0678 208.956 86.6641C209.364 86.2868 209.706 85.871 210.046 85.4331C210.107 85.359 210.168 85.2848 210.23 85.2084C211.07 84.1622 211.73 82.9875 212.305 81.7781C212.386 81.61 212.468 81.4429 212.551 81.2758C213.592 79.314 213.592 79.314 213.938 77.1816C213.864 77.0159 213.864 77.0159 213.705 76.9481C212.385 76.6583 210.425 79.2068 209.742 80.1406Z" fill="#ffffff"></path>
  <path d="M191.519 74.691C191.519 74.8451 191.519 74.9993 191.519 75.1581C191.479 75.1713 191.438 75.1846 191.396 75.1982C191.273 75.2387 191.15 75.2799 191.028 75.3217C190.891 75.3672 190.755 75.4107 190.617 75.4518C188.795 76.0352 187.883 77.5815 187.054 79.1867C186.452 80.3715 185.905 81.5774 185.39 82.8023C185.358 82.8796 185.325 82.9568 185.292 83.0363C185.129 83.4244 184.967 83.8128 184.806 84.2018C183.982 86.1859 182.967 88.0179 180.936 88.966C180.027 89.3179 178.996 89.499 178.067 89.1166C177.382 88.7676 176.742 88.2453 176.417 87.5353C176.385 87.5778 176.353 87.6202 176.319 87.664C175.605 88.5389 174.627 89.1223 173.499 89.2741C172.921 89.3001 172.413 89.1357 171.961 88.776C171.432 88.2745 171.208 87.6245 171.124 86.9126C171.124 86.8098 171.124 86.7071 171.124 86.6012C171.073 86.6012 171.021 86.6012 170.968 86.6012C170.951 86.6561 170.933 86.711 170.915 86.7675C170.791 87.0364 170.62 87.2307 170.419 87.4429C170.38 87.4839 170.341 87.5248 170.301 87.567C170.187 87.687 170.072 87.8059 169.956 87.9246C169.873 88.0123 169.873 88.0123 169.788 88.1018C169.151 88.7229 168.192 89.2542 167.29 89.2625C166.811 89.2545 166.345 89.2136 165.952 88.9171C165.625 88.5655 165.576 88.1662 165.509 87.7008C165.496 87.6111 165.483 87.5213 165.47 87.4289C165.46 87.3613 165.451 87.2937 165.441 87.224C165.367 87.301 165.367 87.301 165.291 87.3797C165.211 87.4578 165.132 87.5356 165.052 87.6132C165.005 87.6603 164.957 87.7073 164.909 87.7558C163.987 88.6277 162.828 89.2102 161.544 89.1911C160.902 89.1321 160.4 88.8896 159.965 88.4141C159.361 87.5785 159.341 86.4759 159.471 85.4886C159.539 85.0991 159.642 84.7214 159.759 84.3437C159.788 84.2477 159.817 84.1517 159.848 84.0527C160.625 81.7918 162.035 79.7281 163.647 77.9787C163.795 77.8169 163.937 77.6513 164.079 77.4837C164.585 76.9068 165.147 76.4438 165.831 76.0922C165.882 76.0656 165.933 76.039 165.986 76.0116C166.611 75.7491 167.527 75.7241 168.169 75.9371C168.292 75.9963 168.416 76.0559 168.539 76.1162C168.817 76.2033 169.019 76.0991 169.284 76.0007C169.87 75.8174 170.478 75.8937 171.031 76.1436C171.34 76.3319 171.596 76.5856 171.718 76.9318C172.167 79.6104 170.38 82.5491 169.337 84.9235C169.313 84.9797 169.288 85.036 169.262 85.0939C169.216 85.2005 169.169 85.307 169.122 85.4135C168.853 86.0256 168.686 86.5568 168.633 87.224C169.222 87.0715 169.504 86.6648 169.878 86.212C169.912 86.1719 169.945 86.1317 169.98 86.0904C170.929 84.9366 171.548 83.6128 172.148 82.2535C173.238 79.7804 174.43 77.2003 177.084 76.1409C177.791 75.9093 178.48 75.8381 179.22 75.8733C179.276 75.8756 179.332 75.8779 179.389 75.8803C179.725 75.9029 179.972 75.9496 180.232 76.17C180.232 76.2728 180.232 76.3756 180.232 76.4814C180.153 76.4976 180.074 76.5137 179.992 76.5304C178.706 76.8106 177.881 77.3468 177.149 78.4484C176.379 79.6485 175.843 80.9631 175.309 82.2797C175.254 82.4143 175.199 82.5489 175.144 82.6833C174.205 84.933 174.205 84.933 174.316 87.3018C174.367 87.3532 174.418 87.4046 174.471 87.4575C174.985 87.4395 175.235 87.1594 175.591 86.8202C175.877 86.5126 176.075 86.197 176.262 85.8228C176.294 85.7646 176.326 85.7064 176.36 85.6464C176.61 85.158 176.741 84.6491 176.875 84.1199C177.445 81.8653 178.306 79.7541 179.928 78.0404C180.088 77.8751 180.088 77.8751 180.256 77.6442C181.296 76.5071 182.841 75.9535 184.351 75.8346C185.004 75.8223 185.004 75.8223 185.292 76.0144C185.331 76.2041 185.331 76.2041 185.292 76.4036C185.062 76.603 184.806 76.6679 184.518 76.749C183.988 76.9008 183.641 77.1702 183.268 77.5712C183.228 77.6125 183.188 77.6537 183.147 77.6962C181.703 79.2527 180.894 81.5113 180.168 83.4739C180.083 83.7032 179.993 83.9305 179.902 84.1579C179.507 85.185 179.254 86.4267 179.643 87.497C179.793 87.8476 179.793 87.8476 180.076 88.0803C180.541 88.1149 180.887 87.992 181.244 87.691C182.39 86.6682 182.561 84.687 182.757 83.2636C183.09 80.862 183.822 78.8026 185.525 77.0263C185.591 76.9549 185.656 76.8834 185.724 76.8098C187.014 75.4494 189.575 74.2758 191.519 74.691ZM167.387 77.4156C166.625 78.0948 165.95 78.8386 165.363 79.6731C165.331 79.7183 165.299 79.7635 165.266 79.81C164.752 80.5341 164.337 81.2824 163.962 82.0862C163.921 82.173 163.921 82.173 163.879 82.2615C163.504 83.0497 163.175 83.849 162.877 84.6697C162.848 84.7506 162.819 84.8314 162.788 84.9148C162.571 85.5282 162.385 86.1255 162.376 86.7812C162.373 86.8964 162.373 86.8964 162.37 87.0138C162.415 87.2815 162.503 87.3725 162.717 87.5353C163.39 87.5757 163.905 87.0372 164.384 86.6235C164.941 86.128 165.39 85.5651 165.831 84.9665C165.879 84.9019 165.928 84.8372 165.978 84.7706C167.341 82.8973 169.178 79.7236 168.944 77.3377C168.873 77.1012 168.873 77.1012 168.711 76.9485C168.141 76.791 167.816 77.061 167.387 77.4156Z" fill="#ffffff"></path>
  <path d="M195.24 75.7077C195.721 75.8802 196.081 75.8525 196.578 75.7807C197.054 75.7436 197.482 75.7638 197.901 76.0142C198.318 76.3797 198.5 76.7597 198.55 77.3148C198.655 81.9033 194.994 87.4564 192.997 91.4274C193.132 91.4402 193.132 91.4402 193.27 91.4532C193.768 91.5088 194.261 91.5977 194.754 91.6843C194.996 91.7269 195.239 91.769 195.482 91.8111C195.676 91.8449 195.871 91.8787 196.066 91.9126C198.489 92.3335 200.912 92.744 203.35 93.0622C203.407 93.0697 203.464 93.0771 203.523 93.0848C206.672 93.4968 209.919 93.3908 212.925 92.2837C213.318 92.1408 213.602 92.1138 214.015 92.128C214.041 92.2308 214.067 92.3335 214.093 92.4394C213.6 92.7577 213.133 93.0007 212.57 93.1643C212.496 93.1864 212.421 93.2084 212.345 93.2311C210.522 93.7497 208.65 94.1175 206.78 94.4196C206.723 94.4289 206.666 94.4382 206.606 94.4478C204.792 94.739 202.993 94.8692 201.156 94.8672C201.083 94.8672 201.01 94.8672 200.935 94.8671C198.69 94.8642 196.446 94.7686 194.209 94.585C194.151 94.5804 194.094 94.5757 194.035 94.5709C193.476 94.5247 192.921 94.4686 192.368 94.3746C192.243 94.3542 192.243 94.3542 192.116 94.3334C191.967 94.3076 191.818 94.2789 191.67 94.2463C191.473 94.2115 191.326 94.1921 191.129 94.2298C190.903 94.4073 190.749 94.6197 190.584 94.8526C189.742 95.7803 188.713 96.4962 187.626 97.1101C187.533 97.1626 187.533 97.1626 187.439 97.2162C185.8 98.1345 184.097 98.7657 182.255 99.134C182.121 99.1626 182.121 99.1626 181.985 99.1918C179.969 99.5556 177.668 99.3852 175.949 98.1999C175.469 97.8552 175.126 97.4424 174.937 96.8766C174.853 95.9906 175.246 95.2772 175.776 94.5877C177.926 92.0793 181.739 91.5841 184.823 91.2717C184.914 91.2623 185.005 91.2529 185.099 91.2432C185.344 91.2213 185.589 91.2064 185.835 91.1939C185.935 91.1888 185.935 91.1888 186.037 91.1836C186.281 91.1716 186.525 91.1609 186.77 91.1501C186.856 91.1456 186.942 91.1411 187.03 91.1365C187.513 91.115 187.978 91.1211 188.46 91.1659C189.421 91.2864 189.421 91.2864 190.297 90.9824C190.609 90.6209 190.793 90.206 190.967 89.7645C191.089 89.4665 191.25 89.1952 191.411 88.917C191.62 88.5347 191.736 88.1908 191.829 87.7687C191.752 87.7687 191.675 87.7687 191.596 87.7687C191.575 87.8154 191.554 87.8621 191.533 87.9101C191.208 88.5067 190.477 88.8118 189.865 89.0234C189.12 89.1981 188.168 89.2254 187.471 88.8789C186.999 88.5831 186.705 88.317 186.536 87.7687C186.185 84.8047 187.854 81.0653 189.548 78.7321C189.872 78.3228 190.218 77.9426 190.584 77.5711C190.685 77.4688 190.685 77.4688 190.788 77.3643C191.863 76.3309 193.719 75.1363 195.24 75.7077ZM192.429 79.1838C190.94 81.2014 189.237 84.4065 189.494 86.9903C189.584 87.2264 189.623 87.2858 189.844 87.4184C190.262 87.4781 190.537 87.3596 190.895 87.146C191.229 86.8807 191.529 86.5927 191.829 86.2897C191.884 86.237 191.938 86.1843 191.994 86.1301C193.364 84.7123 194.118 82.7134 194.778 80.8941C194.799 80.8361 194.82 80.7781 194.842 80.7183C195.075 80.0732 195.289 79.4248 195.474 78.7643C195.499 78.6789 195.499 78.6789 195.523 78.5917C195.649 78.1333 195.754 77.6595 195.722 77.1819C195.645 77.0663 195.645 77.0663 195.566 76.9484C194.416 76.7183 193.033 78.3854 192.429 79.1838ZM176.473 95.2233C176.166 95.6206 175.98 96.0506 175.905 96.5457C175.998 97.0779 176.285 97.4251 176.692 97.7611C177.634 98.3889 178.787 98.4631 179.885 98.4578C179.981 98.4573 180.076 98.4569 180.175 98.4564C181.989 98.4324 183.708 98.0068 185.291 97.1101C185.366 97.0678 185.442 97.0256 185.519 96.9821C186.742 96.2505 187.936 95.138 188.56 93.8406C188.56 93.7892 188.56 93.7379 188.56 93.6849C187.808 93.5507 187.056 93.4206 186.303 93.2957C186.202 93.279 186.202 93.279 186.1 93.262C183.218 92.8017 178.632 92.9349 176.473 95.2233Z" fill="#ffffff"></path>
</svg>
