<?xml version="1.0" encoding="UTF-8"?>
<svg xmlns="http://www.w3.org/2000/svg" width="290" height="160" viewBox="0 0 290 160" fill="none">
  <path d="M174.193 67.5549C177.49 67.5549 180.787 67.5549 184.183 67.5549C184.54 68.9675 184.898 70.38 185.266 71.8354C186.122 75.2196 186.98 78.6034 187.846 81.9849C188.08 81.4655 188.195 80.9297 188.319 80.3765C188.355 80.2183 188.355 80.2183 188.392 80.0568C188.471 79.7077 188.55 79.3584 188.629 79.0092C188.685 78.7644 188.74 78.5197 188.796 78.275C188.942 77.6292 189.089 76.9832 189.235 76.3372C189.381 75.6886 189.529 75.0401 189.676 74.3916C189.868 73.5446 190.06 72.6975 190.252 71.8504C190.302 71.6304 190.352 71.4105 190.401 71.1905C190.528 70.633 190.654 70.0754 190.778 69.5175C190.804 69.4046 190.829 69.2916 190.855 69.1752C190.904 68.9598 190.952 68.7443 191 68.5287C191.022 68.4331 191.043 68.3374 191.065 68.2389C191.094 68.1127 191.094 68.1127 191.122 67.9839C191.176 67.7769 191.176 67.7769 191.287 67.5549C194.547 67.5549 197.807 67.5549 201.166 67.5549C201.166 75.2472 201.166 82.9395 201.166 90.8649C199.225 90.8649 197.284 90.8649 195.283 90.8649C195.247 85.0774 195.21 79.2898 195.172 73.3269C194.712 75.0668 194.252 76.8068 193.778 78.5994C192.696 82.6898 191.609 86.7788 190.51 90.8649C188.532 90.8649 186.554 90.8649 184.516 90.8649C184.319 90.1197 184.122 89.3745 183.919 88.6067C183.79 88.1191 183.661 87.6314 183.532 87.1438C183.33 86.3789 183.128 85.614 182.925 84.8491C181.909 81.0063 180.883 77.1665 179.854 73.3269C179.818 79.1145 179.781 84.902 179.743 90.8649C177.912 90.8649 176.08 90.8649 174.193 90.8649C174.193 83.1726 174.193 75.4803 174.193 67.5549Z" fill="#ffffff"></path>
  <path d="M99.3789 67.5549C102.712 67.5549 106.046 67.5549 109.48 67.5549C109.863 69.0756 109.863 69.0756 110.253 70.6269C110.414 71.2679 110.576 71.9088 110.737 72.5497C110.993 73.5678 111.25 74.5858 111.506 75.6039C111.692 76.3453 111.879 77.0867 112.066 77.828C112.165 78.2207 112.264 78.6133 112.362 79.006C112.472 79.444 112.583 79.882 112.693 80.32C112.742 80.516 112.742 80.516 112.793 80.7159C112.823 80.8349 112.853 80.954 112.884 81.0767C112.91 81.1803 112.936 81.284 112.963 81.3908C113.016 81.5908 113.077 81.7886 113.143 81.9849C113.544 80.4504 113.876 78.9025 114.209 77.352C114.268 77.0791 114.327 76.8062 114.386 76.5333C114.539 75.8205 114.693 75.1077 114.846 74.3948C115.092 73.249 115.339 72.1032 115.586 70.9575C115.672 70.5579 115.758 70.1583 115.844 69.7586C115.896 69.5153 115.948 69.2719 116.001 69.0286C116.025 68.9174 116.048 68.8061 116.073 68.6915C116.106 68.5392 116.106 68.5392 116.139 68.3838C116.158 68.2955 116.177 68.2073 116.197 68.1164C116.251 67.8879 116.251 67.8879 116.362 67.5549C119.622 67.5549 122.882 67.5549 126.241 67.5549C126.241 75.2472 126.241 82.9395 126.241 90.8649C124.299 90.8649 122.358 90.8649 120.358 90.8649C120.321 85.114 120.285 79.3631 120.247 73.4379C119.514 76.1852 118.782 78.9324 118.027 81.7629C117.599 83.36 117.171 84.9571 116.742 86.5539C116.586 87.137 116.429 87.7202 116.273 88.3034C116.044 89.1573 115.814 90.0111 115.585 90.8649C113.643 90.8649 111.702 90.8649 109.702 90.8649C109.327 89.8659 109.327 89.8659 109.23 89.496C109.196 89.3694 109.196 89.3694 109.162 89.2402C109.127 89.106 109.127 89.106 109.091 88.9691C109.065 88.8722 109.039 88.7752 109.013 88.6753C108.928 88.3548 108.844 88.0342 108.76 87.7135C108.699 87.4847 108.639 87.2559 108.578 87.0272C108.418 86.4215 108.258 85.8156 108.099 85.2097C107.848 84.2581 107.597 83.3066 107.345 82.3552C107.26 82.033 107.175 81.7108 107.09 81.3886C106.381 78.6984 105.652 76.0136 104.929 73.3269C104.892 79.1145 104.856 84.902 104.818 90.8649C103.023 90.8649 101.228 90.8649 99.3789 90.8649C99.3789 83.1726 99.3789 75.4803 99.3789 67.5549Z" fill="#ffffff"></path>
  <path d="M68.8516 67.5549C72.1116 67.5549 75.3717 67.5549 78.7305 67.5549C79.1052 68.6788 79.1052 68.6788 79.2045 69.0741C79.2273 69.1642 79.2501 69.2544 79.2737 69.3472C79.3092 69.49 79.3092 69.49 79.3455 69.6356C79.3846 69.7904 79.3846 69.7904 79.4244 69.9484C79.5099 70.2874 79.5948 70.6265 79.6797 70.9656C79.7398 71.2044 79.7999 71.4432 79.8601 71.6821C80.0184 72.3106 80.1762 72.9392 80.334 73.5678C80.585 74.5681 80.8368 75.5682 81.0885 76.5684C81.1753 76.9135 81.2619 77.2587 81.3485 77.6038C81.7252 79.1035 82.1116 80.6004 82.5045 82.0959C82.7281 81.1334 82.9516 80.1709 83.175 79.2084C83.2551 78.8633 83.3352 78.5181 83.4154 78.173C83.8413 76.3384 84.2663 74.5036 84.6852 72.6673C84.7399 72.4276 84.7946 72.1878 84.8494 71.9481C85.0044 71.2692 85.1593 70.5904 85.3132 69.9113C85.3905 69.5703 85.4684 69.2295 85.5462 68.8887C85.574 68.7654 85.6018 68.6422 85.6304 68.5152C85.6558 68.4041 85.6813 68.293 85.7075 68.1785C85.7295 68.0816 85.7515 67.9847 85.7741 67.8848C85.8345 67.6659 85.8345 67.6659 85.9455 67.5549C89.2056 67.5549 92.4657 67.5549 95.8245 67.5549C95.8245 75.2472 95.8245 82.9395 95.8245 90.8649C93.8831 90.8649 91.9417 90.8649 89.9415 90.8649C89.9049 85.0407 89.8683 79.2166 89.8305 73.2159C88.7946 77.1188 88.7946 77.1188 87.7587 81.0218C87.5532 81.7959 87.3477 82.5701 87.142 83.3442C87.0875 83.5493 87.0875 83.5493 87.0318 83.7587C86.9596 84.0306 86.8873 84.3026 86.815 84.5745C86.6081 85.3533 86.4017 86.1321 86.1958 86.9111C86.0707 87.384 85.9454 87.8568 85.82 88.3295C85.7619 88.5489 85.7039 88.7684 85.6461 88.9878C85.5675 89.2859 85.4884 89.5839 85.4093 89.8819C85.3863 89.9696 85.3633 90.0574 85.3396 90.1478C85.1812 90.7412 85.1812 90.7412 85.0575 90.8649C84.8736 90.8753 84.6892 90.8779 84.5049 90.8775C84.3871 90.8775 84.2693 90.8775 84.148 90.8775C84.0199 90.8769 83.8918 90.8763 83.7598 90.8757C83.6294 90.8756 83.4989 90.8754 83.3646 90.8753C82.9461 90.8746 82.5276 90.8732 82.1091 90.8718C81.8262 90.8713 81.5433 90.8708 81.2603 90.8703C80.5651 90.8691 79.8698 90.8672 79.1745 90.8649C78.5942 88.801 78.0405 86.7302 77.4909 84.658C77.4552 84.5233 77.4195 84.3886 77.3827 84.2498C77.1597 83.4089 76.9369 82.5679 76.7143 81.7269C76.4145 80.5946 76.1146 79.4624 75.8144 78.3303C75.7109 77.9399 75.6077 77.5495 75.5044 77.1591C75.44 76.9161 75.3756 76.6731 75.3111 76.4301C75.2834 76.325 75.2557 76.22 75.2271 76.1117C74.9604 75.1069 74.6799 74.1069 74.4016 73.1049C74.3649 78.9657 74.3283 84.8265 74.2906 90.8649C72.4957 90.8649 70.7008 90.8649 68.8516 90.8649C68.8516 83.1726 68.8516 75.4803 68.8516 67.5549Z" fill="#ffffff"></path>
  <path d="M233.021 67.5549C236.062 67.5549 239.102 67.5549 242.234 67.5549C243.417 70.2099 244.596 72.866 245.755 75.5315C245.793 75.6189 245.831 75.7062 245.87 75.7962C245.908 75.8835 245.946 75.9707 245.985 76.0606C246.455 77.1415 246.929 78.2208 247.403 79.3001C247.444 79.3932 247.485 79.4863 247.527 79.5822C247.645 79.852 247.764 80.1217 247.882 80.3915C247.915 80.4669 247.948 80.5424 247.982 80.6202C248.394 81.5574 248.812 82.4923 249.227 83.4279C249.282 75.5708 249.282 75.5708 249.338 67.5549C251.207 67.5549 253.075 67.5549 254.999 67.5549C254.999 75.2472 254.999 82.9395 254.999 90.8649C252.032 90.8649 249.065 90.8649 246.008 90.8649C243.501 85.0982 243.501 85.0982 243.362 84.7784C243.271 84.5678 243.179 84.3572 243.087 84.1466C242.86 83.6235 242.633 83.1004 242.405 82.5772C241.974 81.5843 241.542 80.5915 241.11 79.5988C240.907 79.1327 240.704 78.6666 240.501 78.2005C240.405 77.9794 240.308 77.7583 240.212 77.5372C240.078 77.2297 239.944 76.922 239.81 76.6144C239.772 76.5258 239.733 76.4372 239.693 76.346C239.386 75.6385 239.09 74.9273 238.793 74.2149C238.757 79.7094 238.72 85.2039 238.682 90.8649C236.814 90.8649 234.946 90.8649 233.021 90.8649C233.021 83.1726 233.021 75.4803 233.021 67.5549Z" fill="#ffffff"></path>
  <path d="M110.367 94.7314C113.371 94.7314 116.374 94.7314 119.469 94.7314C119.965 95.7934 120.445 96.8483 120.891 97.9296C121.018 98.2344 121.145 98.5391 121.272 98.8436C121.306 98.9235 121.339 99.0034 121.374 99.0857C121.782 100.063 122.201 101.036 122.619 102.009C123.207 103.379 123.795 104.75 124.379 106.122C124.408 106.191 124.437 106.26 124.467 106.331C124.786 107.08 125.105 107.83 125.424 108.579C125.53 108.828 125.635 109.076 125.741 109.324C125.79 109.44 125.839 109.555 125.889 109.673C125.934 109.779 125.979 109.884 126.025 109.992C126.084 110.13 126.084 110.13 126.143 110.271C126.209 110.421 126.278 110.569 126.351 110.715C126.388 105.441 126.424 100.166 126.462 94.7314C128.257 94.7314 130.052 94.7314 131.901 94.7314C131.901 102.424 131.901 110.116 131.901 118.041C129.007 118.041 126.114 118.041 123.132 118.041C122.745 117.203 122.362 116.371 122.006 115.521C121.965 115.424 121.925 115.328 121.883 115.228C121.796 115.022 121.709 114.815 121.623 114.609C121.389 114.053 121.155 113.496 120.92 112.94C120.873 112.827 120.825 112.714 120.776 112.598C120.325 111.525 119.87 110.454 119.414 109.383C118.711 107.731 118.01 106.077 117.312 104.423C117.242 104.259 117.242 104.259 117.171 104.091C117.04 103.78 116.909 103.47 116.778 103.159C116.739 103.067 116.7 102.975 116.66 102.88C116.624 102.794 116.587 102.708 116.55 102.62C116.503 102.508 116.503 102.508 116.455 102.395C116.347 102.135 116.244 101.874 116.139 101.613C116.103 107.035 116.066 112.456 116.028 118.041C114.16 118.041 112.292 118.041 110.367 118.041C110.367 110.349 110.367 102.657 110.367 94.7314Z" fill="#ffffff"></path>
  <path d="M82.952 96.6184C84.4484 97.9731 84.8128 99.9138 84.95 101.835C82.7156 101.835 80.4812 101.835 78.179 101.835C78.0691 101.506 77.9592 101.176 77.846 100.836C77.46 100.031 76.9245 99.5012 76.1117 99.1367C74.7466 98.6798 73.0395 98.8002 71.741 99.3934C71.3792 99.5863 71.0609 99.8022 70.742 100.059C70.6418 100.135 70.6418 100.135 70.5395 100.212C69.348 101.238 68.7773 103.091 68.633 104.61C68.6002 105.193 68.5877 105.775 68.5845 106.359C68.5833 106.502 68.5822 106.645 68.581 106.793C68.5988 108.732 69.0557 110.713 70.4047 112.172C72.0249 113.719 73.9331 113.887 76.0605 113.85C76.7434 113.829 77.4068 113.763 78.0802 113.65C78.401 113.601 78.401 113.601 78.956 113.601C78.956 112.173 78.956 110.744 78.956 109.272C77.3443 109.272 75.7326 109.272 74.072 109.272C74.072 107.807 74.072 106.342 74.072 104.832C77.6618 104.832 81.2515 104.832 84.95 104.832C84.95 108.972 84.95 113.111 84.95 117.375C80.1553 118.174 80.1553 118.174 77.957 118.374C77.8762 118.382 77.7953 118.39 77.712 118.398C73.4953 118.797 68.6397 118.657 65.1894 115.885C63.1546 114.152 62.1026 111.663 61.7511 109.05C61.7387 108.965 61.7264 108.879 61.7138 108.791C61.3014 105.263 61.7959 101.462 63.86 98.5054C64.1727 98.1128 64.5046 97.7505 64.859 97.3954C64.9352 97.318 65.0113 97.2406 65.0897 97.1608C69.1959 93.2448 78.6611 92.9045 82.952 96.6184Z" fill="#ffffff"></path>
  <path d="M59.0859 41.4365C61.2837 41.4365 63.4815 41.4365 65.7459 41.4365C65.7459 44.4035 65.7459 47.3706 65.7459 50.4275C68.2734 50.4275 70.8009 50.4275 73.4049 50.4275C73.4049 47.4605 73.4049 44.4935 73.4049 41.4365C75.6027 41.4365 77.8005 41.4365 80.0649 41.4365C80.0649 49.1654 80.0649 56.8944 80.0649 64.8575C77.8671 64.8575 75.6693 64.8575 73.4049 64.8575C73.4049 61.7439 73.4049 58.6304 73.4049 55.4225C70.8774 55.4225 68.35 55.4225 65.7459 55.4225C65.7459 58.5727 65.7459 61.7228 65.7459 64.9685C63.5481 64.9685 61.3503 64.9685 59.0859 64.9685C59.0859 57.2029 59.0859 49.4374 59.0859 41.4365Z" fill="#ffffff"></path>
  <path d="M151.215 67.5551C153.282 67.5482 155.349 67.5414 157.479 67.5343C158.129 67.5313 158.778 67.5282 159.447 67.5251C160.249 67.5236 160.249 67.5236 160.626 67.5233C160.885 67.5228 161.145 67.5216 161.404 67.5199C164.202 67.5025 167.146 67.6613 169.321 69.6598C170.3 70.7206 170.746 72.0034 170.753 73.4359C170.686 75.1229 170.275 76.646 169.016 77.8573C168.113 78.5856 166.984 78.955 165.867 79.2101C165.867 79.2467 165.867 79.2833 165.867 79.3211C165.969 79.34 166.071 79.3589 166.176 79.3783C167.589 79.6574 168.393 79.9705 169.217 81.1786C169.943 82.4548 170.077 84.1604 170.308 85.5901C170.561 87.1553 170.835 88.7063 171.212 90.2472C171.306 90.6431 171.306 90.6431 171.306 90.8651C168.998 90.8651 166.69 90.8651 164.313 90.8651C164.063 90.1161 164.063 90.1161 164.012 89.6931C163.994 89.5518 163.994 89.5518 163.976 89.4076C163.963 89.3073 163.951 89.2071 163.939 89.1038C163.911 88.8864 163.884 88.6691 163.856 88.4517C163.814 88.113 163.772 87.7743 163.731 87.4356C163.543 84.7736 163.543 84.7736 162.315 82.5401C160.924 81.6779 159.262 82.0354 157.653 81.9851C157.653 84.9155 157.653 87.8459 157.653 90.8651C155.528 90.8651 153.404 90.8651 151.215 90.8651C151.215 83.1728 151.215 75.4805 151.215 67.5551ZM157.653 71.9951C157.653 73.8632 157.653 75.7313 157.653 77.6561C158.459 77.6561 159.265 77.6561 160.095 77.6561C160.095 77.5828 160.095 77.5096 160.095 77.4341C160.168 77.4379 160.24 77.4418 160.315 77.4458C161.444 77.4793 162.662 77.3294 163.536 76.5461C164.128 75.7938 164.162 74.9129 164.091 73.9931C163.958 73.3719 163.709 72.9466 163.203 72.5501C162.338 72.0688 161.508 71.9771 160.525 71.9843C160.452 71.9844 160.379 71.9845 160.303 71.9846C160.032 71.9852 159.762 71.9867 159.491 71.9882C158.885 71.9904 158.278 71.9927 157.653 71.9951Z" fill="#ffffff"></path>
  <path d="M43.991 94.7314C46.6283 94.7314 49.2657 94.7314 51.983 94.7314C52.4824 95.7304 52.4824 95.7304 52.6681 96.2063C52.7102 96.3137 52.7523 96.4211 52.7958 96.5318C52.8624 96.7034 52.8624 96.7034 52.9304 96.8786C52.9782 97.0007 53.026 97.1229 53.0752 97.2487C53.1781 97.5117 53.2808 97.7747 53.3833 98.0378C53.5466 98.4569 53.7104 98.8758 53.8743 99.2946C53.9019 99.3651 53.9295 99.4357 53.958 99.5084C54.014 99.6514 54.07 99.7945 54.126 99.9376C54.2106 100.154 54.2952 100.37 54.3797 100.586C54.8905 101.892 55.4064 103.196 55.9235 104.499C56.7454 106.572 57.5612 108.647 58.375 110.723C58.9023 112.068 59.431 113.412 59.9693 114.752C60.0117 114.858 60.054 114.963 60.0977 115.072C60.294 115.561 60.491 116.049 60.6887 116.537C60.7569 116.707 60.8251 116.876 60.8933 117.045C60.9399 117.159 60.9399 117.159 60.9875 117.276C61.196 117.794 61.196 117.794 61.196 118.041C58.7417 118.041 56.2875 118.041 53.759 118.041C53.5209 117.352 53.2828 116.663 53.0375 115.953C52.9621 115.736 52.8868 115.519 52.8092 115.295C52.75 115.123 52.6908 114.951 52.6316 114.779C52.5849 114.645 52.5849 114.645 52.5372 114.508C52.5079 114.422 52.4786 114.337 52.4484 114.248C52.4228 114.174 52.3972 114.1 52.3708 114.024C52.316 113.823 52.316 113.823 52.316 113.49C49.3123 113.527 46.3087 113.564 43.214 113.601C42.7437 115.021 42.7437 115.021 42.2742 116.441C42.2153 116.618 42.1564 116.795 42.0975 116.973C42.0669 117.066 42.0363 117.158 42.0048 117.254C41.7836 117.918 41.7836 117.918 41.66 118.041C41.4522 118.052 41.2441 118.054 41.036 118.054C40.9027 118.054 40.7694 118.054 40.632 118.054C40.4869 118.053 40.3418 118.053 40.1923 118.052C40.0431 118.052 39.894 118.052 39.7448 118.052C39.3515 118.051 38.9583 118.05 38.565 118.049C38.164 118.048 37.763 118.047 37.362 118.047C36.5747 118.046 35.7873 118.044 35 118.041C35.4197 116.827 35.8641 115.625 36.3353 114.43C36.5301 113.935 36.7237 113.441 36.9173 112.946C36.9591 112.839 37.0009 112.733 37.0439 112.623C37.5743 111.267 38.0977 109.909 38.6214 108.551C38.7249 108.282 38.8285 108.014 38.932 107.745C39.1428 107.199 39.3535 106.653 39.5641 106.106C42.161 99.3699 42.161 99.3699 43.1475 96.8304C43.2142 96.6587 43.2808 96.4871 43.3474 96.3154C43.4365 96.0858 43.5258 95.8563 43.6151 95.6268C43.664 95.5008 43.713 95.3749 43.7635 95.2451C43.88 94.9534 43.88 94.9534 43.991 94.7314ZM47.654 99.6154C47.6265 99.6981 47.599 99.7808 47.5707 99.866C47.3081 100.656 47.0454 101.446 46.7825 102.236C46.6474 102.642 46.5124 103.047 46.3775 103.453C46.2214 103.923 46.0652 104.392 45.9088 104.862C45.8707 104.976 45.8707 104.976 45.8318 105.093C45.4849 106.134 45.1318 107.172 44.7604 108.205C44.6023 108.617 44.6023 108.617 44.546 109.05C46.524 109.05 48.502 109.05 50.54 109.05C50.0051 107.14 49.4662 105.232 48.9103 103.328C48.8252 103.036 48.7406 102.744 48.6563 102.452C48.5327 102.025 48.408 101.597 48.2831 101.17C48.2266 100.973 48.2266 100.973 48.1689 100.773C48.1336 100.653 48.0984 100.533 48.0621 100.41C48.0314 100.304 48.0007 100.199 47.9691 100.09C47.8896 99.8201 47.8896 99.8201 47.654 99.6154Z" fill="#ffffff"></path>
  <path d="M213.044 67.5549C215.718 67.5549 218.392 67.5549 221.147 67.5549C222.535 70.9609 222.535 70.9609 223.193 72.6554C223.405 73.2002 223.618 73.7446 223.831 74.2891C223.874 74.4014 223.918 74.5138 223.963 74.6295C224.452 75.8803 224.947 77.129 225.441 78.3774C225.508 78.5447 225.508 78.5447 225.575 78.7153C225.751 79.1576 225.926 79.6 226.101 80.0424C226.514 81.0826 226.925 82.1234 227.335 83.1643C227.402 83.3335 227.469 83.5027 227.536 83.6719C227.702 84.094 227.869 84.5161 228.035 84.9381C228.336 85.7015 228.638 86.4648 228.939 87.2281C229.045 87.4986 229.152 87.769 229.259 88.0394C229.292 88.1233 229.325 88.2071 229.359 88.2935C229.423 88.4545 229.486 88.6156 229.549 88.7767C229.754 89.2948 229.963 89.8105 230.178 90.3239C230.249 90.5319 230.249 90.5319 230.249 90.8649C227.831 90.8649 225.414 90.8649 222.923 90.8649C222.341 89.409 221.865 87.9125 221.369 86.4249C218.365 86.3883 215.362 86.3516 212.267 86.3139C212.157 86.7168 212.047 87.1198 211.934 87.5349C211.845 87.8183 211.753 88.101 211.659 88.3826C211.614 88.5147 211.57 88.6469 211.525 88.7831C211.47 88.9458 211.415 89.1085 211.358 89.2762C211.182 89.8005 211.006 90.3247 210.824 90.8649C208.626 90.8649 206.428 90.8649 204.164 90.8649C204.386 90.1259 204.615 89.4131 204.892 88.6965C204.931 88.5972 204.969 88.4979 205.008 88.3956C205.133 88.0692 205.259 87.7431 205.385 87.417C205.475 87.184 205.564 86.9511 205.654 86.7182C206.404 84.7679 207.16 82.8197 207.916 80.8717C209.638 76.4375 211.345 71.9978 213.044 67.5549ZM216.707 72.5499C216.316 73.7163 215.925 74.8828 215.535 76.0495C215.354 76.5912 215.172 77.1329 214.99 77.6744C214.815 78.1968 214.64 78.7193 214.466 79.2419C214.399 79.4416 214.332 79.6411 214.265 79.8406C214.171 80.1195 214.078 80.3986 213.985 80.6778C213.957 80.7606 213.929 80.8435 213.9 80.9289C213.791 81.2576 213.71 81.5252 213.71 81.8739C215.651 81.8739 217.593 81.8739 219.593 81.8739C219.457 81.1921 219.321 80.5442 219.122 79.8839C219.098 79.8036 219.074 79.7233 219.049 79.6406C218.972 79.3798 218.893 79.1193 218.815 78.8587C218.761 78.6761 218.706 78.4936 218.652 78.311C218.51 77.8339 218.367 77.3569 218.224 76.88C218.078 76.392 217.932 75.9037 217.786 75.4155C217.501 74.4602 217.215 73.505 216.929 72.5499C216.856 72.5499 216.783 72.5499 216.707 72.5499Z" fill="#ffffff"></path>
  <path d="M83.9492 41.4365C89.7001 41.4365 95.451 41.4365 101.376 41.4365C101.376 42.9017 101.376 44.3669 101.376 45.8765C97.7498 45.8765 94.1235 45.8765 90.3872 45.8765C90.3872 47.4882 90.3872 49.1 90.3872 50.7605C93.8671 50.7605 97.3469 50.7605 100.932 50.7605C100.932 52.2623 100.932 53.7642 100.932 55.3115C97.4523 55.3115 93.9725 55.3115 90.3872 55.3115C90.3872 56.8866 90.3872 58.4617 90.3872 60.0845C94.1235 60.0845 97.8597 60.0845 101.709 60.0845C101.709 61.6596 101.709 63.2347 101.709 64.8575C95.8484 64.8575 89.9876 64.8575 83.9492 64.8575C83.9492 57.1286 83.9492 49.3996 83.9492 41.4365Z" fill="#ffffff"></path>
  <path d="M130.016 67.5549C135.73 67.5549 141.444 67.5549 147.332 67.5549C147.332 69.0201 147.332 70.4853 147.332 71.9949C143.742 71.9949 140.152 71.9949 136.454 71.9949C136.454 73.5334 136.454 75.0718 136.454 76.6569C139.933 76.6569 143.413 76.6569 146.999 76.6569C146.999 78.1587 146.999 79.6606 146.999 81.2079C143.519 81.2079 140.039 81.2079 136.454 81.2079C136.454 82.8563 136.454 84.5046 136.454 86.2029C137.262 86.2016 138.07 86.2003 138.902 86.199C139.413 86.1984 139.923 86.1979 140.433 86.1975C141.244 86.1968 142.055 86.196 142.866 86.1945C143.52 86.1933 144.173 86.1927 144.827 86.1924C145.077 86.1922 145.327 86.1918 145.577 86.1912C145.925 86.1904 146.274 86.1902 146.623 86.1903C146.727 86.1899 146.832 86.1895 146.939 86.1891C147.652 86.1902 147.652 86.1902 147.776 86.3139C147.787 86.6408 147.791 86.9651 147.79 87.2921C147.79 87.3902 147.791 87.4883 147.791 87.5894C147.791 87.7973 147.791 88.0052 147.79 88.2131C147.789 88.5325 147.79 88.8519 147.791 89.1713C147.791 89.3728 147.791 89.5742 147.79 89.7757C147.791 89.8719 147.791 89.9681 147.791 90.0672C147.788 90.7411 147.788 90.7411 147.665 90.8649C147.437 90.8756 147.209 90.8784 146.981 90.8782C146.909 90.8783 146.837 90.8784 146.763 90.8785C146.519 90.8787 146.276 90.8781 146.032 90.8775C145.855 90.8775 145.678 90.8775 145.502 90.8775C145.027 90.8776 144.552 90.8769 144.077 90.8761C143.632 90.8755 143.187 90.8755 142.742 90.8754C141.439 90.8748 140.136 90.8733 138.833 90.8718C135.923 90.8695 133.014 90.8673 130.016 90.8649C130.016 83.1726 130.016 75.4803 130.016 67.5549Z" fill="#ffffff"></path>
  <path d="M88.834 94.7314C94.5849 94.7314 100.336 94.7314 106.261 94.7314C106.261 96.1966 106.261 97.6618 106.261 99.1714C102.635 99.1714 99.0082 99.1714 95.272 99.1714C95.272 100.71 95.272 102.248 95.272 103.833C98.6786 103.833 102.085 103.833 105.595 103.833C105.595 105.335 105.595 106.837 105.595 108.384C102.188 108.384 98.7818 108.384 95.272 108.384C95.272 110.033 95.272 111.681 95.272 113.379C99.0082 113.379 102.744 113.379 106.594 113.379C106.594 114.918 106.594 116.456 106.594 118.041C100.733 118.041 94.8724 118.041 88.834 118.041C88.834 110.349 88.834 102.657 88.834 94.7314Z" fill="#ffffff"></path>
  <path d="M35.888 67.5549C42.1151 67.5549 48.3422 67.5549 54.758 67.5549C54.758 72.6609 54.758 72.6609 53.426 74.1039C53.0922 74.4733 52.759 74.843 52.427 75.2139C51.8892 75.8137 51.3489 76.4109 50.8036 77.0038C50.4731 77.3631 50.1449 77.7238 49.8254 78.093C49.4231 78.5574 49.0044 79.0062 48.5867 79.4566C48.2896 79.7775 47.9955 80.1 47.7095 80.4309C47.3147 80.8873 46.9041 81.3286 46.494 81.7713C45.9872 82.3186 45.4875 82.8721 44.99 83.4279C44.0959 84.4251 44.0959 84.4251 43.6606 84.8961C43.6048 84.9565 43.5491 85.0169 43.4916 85.0791C43.3824 85.1973 43.2728 85.3154 43.1631 85.4332C42.878 85.7387 42.878 85.7387 42.659 86.0919C46.7249 86.1285 50.7908 86.1652 54.98 86.2029C54.98 87.7047 54.98 89.2066 54.98 90.7539C48.3866 90.7539 41.7932 90.7539 35 90.7539C35 85.3149 35 85.3149 36.554 83.6499C36.8531 83.3119 36.8531 83.3119 37.1493 82.9713C37.373 82.7134 37.6017 82.4603 37.8305 82.2069C38.1291 81.8761 38.4258 81.544 38.7185 81.2079C39.0952 80.7754 39.4793 80.3498 39.8636 79.924C40.0736 79.69 40.2813 79.4542 40.4876 79.2168C40.8929 78.7513 41.3095 78.2963 41.7255 77.8402C42.0119 77.5241 42.2929 77.2039 42.5727 76.882C42.8026 76.6197 43.0358 76.3608 43.2695 76.1019C43.5681 75.7711 43.8648 75.439 44.1575 75.1029C44.4502 74.7669 44.7469 74.4348 45.0455 74.1039C45.6354 73.4497 46.2155 72.794 46.766 72.1059C43.1762 72.0693 39.5865 72.0327 35.888 71.9949C35.888 70.5297 35.888 69.0645 35.888 67.5549Z" fill="#ffffff"></path>
  <path d="M155.4 96.4948C157.102 98.0532 157.602 99.779 157.765 102.057C155.494 102.057 153.223 102.057 150.883 102.057C150.773 101.563 150.773 101.563 150.661 101.058C150.294 100.224 149.712 99.7044 148.878 99.3656C147.632 98.9498 146.271 98.9222 145.069 99.4905C143.805 100.198 143.192 101.368 142.78 102.723C142.064 105.637 141.884 109.369 143.481 112.033C144.105 112.954 144.813 113.427 145.862 113.778C146.998 113.986 148.343 113.937 149.352 113.347C150.124 112.812 150.515 112.269 150.732 111.354C150.761 111.235 150.789 111.115 150.819 110.992C150.84 110.9 150.861 110.809 150.883 110.715C151.793 110.698 152.703 110.682 153.613 110.666C154.035 110.659 154.458 110.651 154.88 110.643C155.287 110.636 155.695 110.629 156.102 110.622C156.258 110.619 156.414 110.616 156.569 110.613C156.787 110.609 157.004 110.605 157.222 110.602C157.346 110.6 157.47 110.598 157.597 110.595C157.876 110.604 157.876 110.604 157.987 110.715C158.001 112.692 157.34 114.432 155.977 115.862C153.287 118.319 149.353 118.618 145.888 118.485C142.932 118.328 140.243 117.176 138.181 115.041C135.753 112.232 135.391 108.369 135.649 104.82C135.862 102.317 136.631 99.7404 138.34 97.8394C138.428 97.7415 138.515 97.6436 138.605 97.5428C142.453 93.4702 151.071 92.8166 155.4 96.4948Z" fill="#ffffff"></path>
  <path d="M158.434 94.7312C160.998 94.7312 163.562 94.7312 166.204 94.7312C167.35 96.7694 167.35 96.7694 167.747 97.5535C167.792 97.642 167.837 97.7306 167.884 97.8219C168.025 98.098 168.165 98.3744 168.306 98.6509C168.491 99.0159 168.677 99.3808 168.864 99.7457C168.909 99.8351 168.955 99.9245 169.002 100.017C169.338 100.674 169.679 101.329 170.022 101.982C170.067 102.068 170.113 102.154 170.159 102.242C170.462 102.817 170.773 103.386 171.092 103.952C171.199 104.166 171.199 104.166 171.199 104.388C171.272 104.388 171.345 104.388 171.421 104.388C171.445 104.302 171.469 104.216 171.494 104.128C171.695 103.579 171.965 103.078 172.239 102.564C172.361 102.333 172.482 102.103 172.603 101.872C172.696 101.696 172.696 101.696 172.791 101.517C173.071 100.986 173.349 100.453 173.627 99.9204C173.68 99.8176 173.734 99.7148 173.789 99.6089C174.1 99.0137 174.409 98.4176 174.716 97.8206C174.821 97.6177 174.925 97.4149 175.03 97.212C175.129 97.0192 175.228 96.8261 175.327 96.633C175.388 96.5138 175.45 96.3946 175.513 96.2718C175.567 96.1671 175.621 96.0624 175.676 95.9546C175.737 95.8439 175.798 95.7332 175.861 95.6192C175.906 95.5028 175.906 95.5028 175.952 95.3841C176.079 95.1061 176.185 94.9337 176.416 94.7312C176.927 94.6049 177.427 94.6279 177.951 94.6445C178.102 94.6461 178.253 94.6474 178.404 94.6483C178.8 94.6517 179.196 94.6604 179.592 94.6702C179.997 94.6793 180.402 94.6834 180.807 94.6878C181.6 94.6973 182.393 94.7125 183.187 94.7312C183.025 95.2384 182.822 95.6687 182.541 96.1187C182.45 96.2675 182.359 96.4164 182.269 96.5653C182.22 96.6454 182.171 96.7255 182.12 96.808C181.842 97.2649 181.571 97.7256 181.3 98.1861C181.209 98.3391 181.209 98.3391 181.117 98.4951C180.569 99.4238 180.024 100.354 179.479 101.285C178.833 102.388 178.183 103.489 177.53 104.588C176.887 105.673 176.248 106.761 175.612 107.85C175.538 107.976 175.464 108.102 175.388 108.232C175.324 108.342 175.259 108.452 175.193 108.565C174.973 108.939 174.973 108.939 174.802 109.165C174.185 110.035 174.211 110.885 174.217 111.906C174.216 112.083 174.214 112.261 174.213 112.439C174.209 112.902 174.209 113.366 174.209 113.83C174.21 114.389 174.205 114.947 174.201 115.506C174.195 116.351 174.196 117.196 174.196 118.041C171.961 118.041 169.727 118.041 167.425 118.041C167.449 117.19 167.449 117.19 167.474 116.321C167.48 115.952 167.485 115.584 167.488 115.216C167.493 114.636 167.499 114.057 167.52 113.477C167.62 110.618 167.139 108.741 165.458 106.41C165.105 105.913 164.791 105.396 164.476 104.874C164.362 104.691 164.248 104.508 164.134 104.325C163.678 103.59 163.234 102.848 162.79 102.106C162.123 100.991 161.453 99.8786 160.778 98.7688C159.593 96.8178 159.593 96.8178 159.1 96.0008C159.044 95.9096 158.989 95.8184 158.932 95.7245C158.882 95.6415 158.832 95.5586 158.78 95.4731C158.737 95.4016 158.694 95.3301 158.65 95.2565C158.545 95.0642 158.545 95.0642 158.434 94.7312Z" fill="#ffffff"></path>
  <path d="M35 41.4365C41.8498 41.4365 48.6996 41.4365 55.757 41.4365C55.757 42.975 55.757 44.5134 55.757 46.0985C53.4126 46.0985 51.0683 46.0985 48.653 46.0985C48.653 52.289 48.653 58.4794 48.653 64.8575C46.4552 64.8575 44.2574 64.8575 41.993 64.8575C41.993 58.7403 41.993 52.6231 41.993 46.3205C39.6853 46.3205 37.3776 46.3205 35 46.3205C35 44.7088 35 43.0971 35 41.4365Z" fill="#ffffff"></path>
  <path d="M58.0879 67.5549C60.4322 67.5549 62.7765 67.5549 65.1919 67.5549C64.918 71.5454 64.918 71.5454 64.8027 73.2151C64.7231 74.3688 64.6435 75.5225 64.5645 76.6763C64.5069 77.5165 64.4491 78.3567 64.3909 79.1969C64.3602 79.6419 64.3295 80.0868 64.2992 80.5318C64.2706 80.9505 64.2417 81.3693 64.2125 81.788C64.2019 81.9417 64.1914 82.0955 64.181 82.2492C64.1668 82.4591 64.1521 82.6689 64.1374 82.8787C64.1293 82.9962 64.1212 83.1136 64.1129 83.2346C64.0819 83.5389 64.0819 83.5389 63.9709 83.9829C62.4324 83.9829 60.894 83.9829 59.3089 83.9829C59.2129 83.5989 59.1694 83.2711 59.1424 82.8787C59.1329 82.7436 59.1234 82.6085 59.1136 82.4693C59.1035 82.3199 59.0935 82.1706 59.0834 82.0212C59.0725 81.8637 59.0615 81.7061 59.0505 81.5486C59.0208 81.1212 58.9916 80.6937 58.9625 80.2663C58.932 79.8194 58.901 79.3727 58.8701 78.9259C58.8116 78.0799 58.7535 77.2339 58.6955 76.3879C58.6172 75.2447 58.5382 74.1015 58.4593 72.9582C58.335 71.1572 58.2115 69.356 58.0879 67.5549Z" fill="#ffffff"></path>
  <path d="M63.194 86.647C63.7494 87.1174 64.1299 87.7331 64.2281 88.4615C64.2655 89.2429 64.0951 89.9086 63.5777 90.5085C63.0048 91.0408 62.3722 91.3154 61.5914 91.3575C60.7922 91.3231 60.1893 91.0188 59.6489 90.4348C59.1604 89.8197 59.0329 89.2652 59.0527 88.4884C59.1325 87.8193 59.3981 87.2859 59.8917 86.8273C60.9294 86.0309 62.0662 86.0047 63.194 86.647Z" fill="#ffffff"></path>
</svg>
