<?xml version="1.0" encoding="UTF-8"?>
<svg xmlns="http://www.w3.org/2000/svg" width="290" height="160" viewBox="0 0 290 160" fill="none">
  <path d="M126.139 67.9569V63.2741C126.139 61.9614 126.011 61.2318 125.553 60.5938V60.5114H128.862V60.606C128.422 61.244 128.276 61.9767 128.276 63.2863V67.9691C128.276 70.1823 129.387 71.6568 131.542 71.6568C133.697 71.6568 134.809 70.2861 134.809 67.9905V63.3076C134.809 61.9797 134.68 61.2104 134.259 60.609V60.5083H137.052V60.6029C136.619 61.1891 136.466 61.9919 136.466 63.3015V67.9386C136.466 71.3698 134.604 73.4365 131.304 73.4365C128.004 73.4365 126.139 71.4278 126.139 67.9569Z" fill="#ffffff"></path>
  <path d="M138.973 73.1037C139.431 72.5175 139.559 71.6628 139.559 70.3684V61.2591L139.101 60.5692V60.5112H142.334L148.134 70.1303H148.244V63.3045C148.244 62.0284 148.134 61.2072 147.658 60.6059V60.5112H150.451V60.6059C149.993 61.192 149.865 62.0284 149.865 63.3045V73.1983H147.523L141.305 62.9412H141.195V70.399C141.195 71.6933 141.305 72.5359 141.781 73.1342V73.2288H138.988L138.973 73.1037Z" fill="#ffffff"></path>
  <path d="M152.875 73.1037C153.296 72.4656 153.424 71.7391 153.424 70.4234V63.2861C153.424 61.9735 153.296 61.2439 152.875 60.6059V60.5112H156.154V60.6059C155.696 61.2439 155.567 61.9765 155.567 63.2861V70.399C155.567 71.7147 155.674 72.4412 156.154 73.0792V73.1739H152.875V73.1037Z" fill="#ffffff"></path>
  <path d="M164.701 73.1954H162.768L159.157 63.326C158.867 62.346 158.409 61.4241 157.805 60.6029V60.5083H161.254V60.6029C160.833 61.299 161.056 62.2056 161.495 63.4145L164.014 70.4815H164.102L166.789 63.3748C167.28 62.0988 167.463 61.3142 167.152 60.6182V60.5114H169.964V60.606C169.292 61.4363 168.791 62.3918 168.489 63.4175L164.701 73.1954Z" fill="#ffffff"></path>
  <path d="M180.621 70.6219V73.1984H171.295V73.1038C171.753 72.4658 171.881 71.7209 171.881 70.3686V63.268C171.881 61.9736 171.759 61.2257 171.295 60.6029V60.5083H180.346V62.8497H180.252C179.76 62.2056 179.079 61.9706 177.44 61.9706H174.045V66.0673H176.643C178.106 66.0673 178.686 65.8505 179.143 65.411H179.253V68.2042H179.143C178.704 67.731 178.09 67.5295 176.643 67.5295H174.033V71.7453H177.703C179.125 71.7453 179.968 71.5042 180.496 70.628L180.621 70.6219Z" fill="#ffffff"></path>
  <path d="M193.866 73.1618V73.1984H191.125L186.595 67.3555H185.484V70.3991C185.484 71.7514 185.593 72.478 186.027 73.116V73.2106H182.742V73.116C183.2 72.478 183.328 71.7514 183.328 70.3991V63.268C183.328 62.0255 183.234 61.241 182.742 60.6029V60.5083H187.361C190.172 60.5083 191.94 61.824 191.94 63.8693C191.94 65.4201 190.844 66.6259 189.012 67.0838L193.866 73.1618ZM185.456 65.933H186.989C188.686 65.933 189.635 65.1667 189.635 63.8907C189.635 62.6147 188.646 61.94 187.007 61.94H185.456V65.933Z" fill="#ffffff"></path>
  <path d="M194.16 72.2127V69.8132H194.27C195.021 71.0862 196.37 71.886 197.848 71.9318C199.072 71.9318 200.235 71.3121 200.235 70.0513C200.235 69.1722 199.692 68.6807 198.632 68.2075L196.953 67.423C195.274 66.6567 194.453 65.5089 194.453 64.0619C194.453 61.9311 196.315 60.2674 198.886 60.2674C200 60.2491 201.096 60.5452 202.048 61.1222V63.43H201.938C201.297 62.3829 200.156 61.7449 198.928 61.751C197.613 61.751 196.587 62.4287 196.587 63.6376C196.587 64.4221 197.021 64.9838 198.138 65.4997L199.893 66.3179C201.496 67.0505 202.375 68.0732 202.375 69.6209C202.375 71.886 200.403 73.4368 197.903 73.4368C196.557 73.4429 195.244 73.0125 194.16 72.2127Z" fill="#ffffff"></path>
  <path d="M204.564 73.1037C204.986 72.4656 205.108 71.7391 205.108 70.4234V63.2861C205.108 61.9735 204.986 61.2439 204.564 60.6059V60.5112H207.867V60.6059C207.41 61.2439 207.281 61.9765 207.281 63.2861V70.399C207.281 71.7147 207.388 72.4412 207.867 73.0792V73.1739H204.564V73.1037Z" fill="#ffffff"></path>
  <path d="M231.674 66.8853C231.674 64.6233 233.509 62.7886 235.771 62.7886C238.033 62.7886 239.867 64.6233 239.867 66.8853C239.867 69.1474 238.033 70.9821 235.771 70.9821C233.509 70.9821 231.674 69.1504 231.674 66.8853ZM238.396 66.8853C238.396 64.9407 237.388 63.6311 235.798 63.6311C234.208 63.6311 233.209 64.9438 233.209 66.8853C233.209 68.8268 234.205 70.1181 235.798 70.1181C237.392 70.1181 238.375 68.8024 238.375 66.8853H238.396Z" fill="#ffffff"></path>
  <path d="M240.973 70.8599C241.281 70.4295 241.409 69.8983 241.336 69.3733V64.3149C241.412 63.796 241.281 63.2648 240.973 62.8405V62.7886H246.406V64.2875H246.312C246.055 63.8784 245.54 63.7013 244.508 63.7013H242.74V66.4427H244.239C245.164 66.4427 245.61 66.3267 245.842 66.0092H245.912V67.8011H245.842C245.607 67.5081 245.164 67.3798 244.239 67.3798H242.74V69.358C242.74 70.167 242.81 70.4936 243.149 70.8447V70.9027H240.973V70.8599Z" fill="#ffffff"></path>
  <path d="M126.58 82.4701C126.58 80.0126 126.293 78.7641 125.561 77.6468V77.5186H133.675C140.9 77.5186 145.617 81.9908 145.617 88.606C145.617 95.2212 140.885 99.7301 133.662 99.7301H125.561V99.6019C126.486 98.4846 126.58 97.0132 126.58 94.6504V82.4701ZM129.712 97.5871H132.973C138.498 97.5871 142.176 94.6137 142.176 88.606C142.176 82.5983 138.501 79.6616 132.973 79.6616H129.712V97.5871Z" fill="#ffffff"></path>
  <path d="M163.713 95.5723V99.724H147.766V99.5958C148.562 98.4785 148.791 97.1719 148.791 94.7725V82.4365C148.791 80.095 148.599 78.7305 147.766 77.6468V77.5186H163.298V81.2551H163.133C162.303 80.0828 161.027 79.7226 158.246 79.7226H151.917V87.3788H156.777C159.302 87.3788 160.453 86.9972 161.222 86.2066H161.381V90.7429H161.222C160.456 89.9187 159.302 89.5707 156.777 89.5707H151.917V97.5199H158.697C161.185 97.5199 162.69 97.1047 163.551 95.5692H163.713V95.5723Z" fill="#ffffff"></path>
  <path d="M166.693 99.5958C167.495 98.4785 167.682 97.1078 167.682 94.7725V78.7671L166.949 77.5949V77.5308H171.58L182.796 95.264H182.954V82.4365C182.954 80.095 182.768 78.7305 181.935 77.6468V77.5186H186.407V77.6468C185.604 78.7305 185.381 80.1042 185.381 82.4365V99.724H182.063L170.319 81.2245H170.16V94.7725C170.16 97.1139 170.383 98.4785 171.18 99.5958V99.724H166.689V99.5958H166.693Z" fill="#ffffff"></path>
  <path d="M199.364 99.724H196.583L190.288 82.5006C189.522 80.4278 188.884 78.8587 187.895 77.6468V77.5186H193.164V77.6468C192.495 78.8587 192.913 80.5743 193.643 82.5983L198.326 95.5998H198.49L203.573 82.5342C204.434 80.2324 204.691 78.8923 204.275 77.6468V77.5186H208.683V77.6468C207.511 78.8923 206.928 80.3637 206.061 82.5006L199.364 99.724Z" fill="#ffffff"></path>
  <path d="M226.109 95.5723V99.724H210.168V99.5958C210.965 98.4998 211.188 97.1719 211.188 94.7725V82.4365C211.188 80.095 210.995 78.7305 210.168 77.6468V77.5186H225.694V81.2551H225.535C224.705 80.0828 223.429 79.7226 220.648 79.7226H214.32V87.3788H219.18C221.704 87.3788 222.849 86.9972 223.618 86.2066H223.783V90.7429H223.618C222.852 89.9187 221.704 89.5707 219.18 89.5707H214.32V97.5199H221.094C223.588 97.5199 225.093 97.1047 225.954 95.5692H226.109V95.5723Z" fill="#ffffff"></path>
  <path d="M247.997 99.6721V99.7362H243.971L235.564 89.2562H233.262V94.7542C233.262 97.1841 233.485 98.4907 234.288 99.608V99.7362H229.141V99.608C229.943 98.4907 230.166 97.1841 230.166 94.7542V82.4059C230.166 80.1347 229.974 78.7305 229.141 77.6468V77.5186H236.904C241.791 77.5186 244.673 79.86 244.673 83.3034C244.673 86.115 242.624 88.2855 239.111 88.9235L247.997 99.6721ZM233.231 87.0827H236.299C239.624 87.0827 241.318 85.6418 241.318 83.3431C241.318 80.9132 239.563 79.6738 236.336 79.6738H233.234V87.0827H233.231Z" fill="#ffffff"></path>
  <path d="M213.121 73.0977C213.649 72.4597 213.777 71.727 213.777 70.393V61.9461H212.501C210.898 61.9461 210.053 62.2728 209.638 62.8955H209.543V60.5083H220.182L220.334 62.8955H220.224C219.803 62.2758 218.982 61.9461 217.379 61.9461H215.951V70.3991C215.951 71.7331 216.097 72.4658 216.607 73.1038V73.1923H213.124V73.0977H213.121Z" fill="#ffffff"></path>
  <path d="M227.484 60.5059H230.463V60.5944C229.615 61.4003 228.907 62.3405 228.363 63.3754L225.436 68.1407V70.3997C225.436 71.752 225.564 72.4664 226.022 73.1227V73.2112H222.719V73.1227C223.158 72.4664 223.305 71.752 223.305 70.3997V68.1163L220.46 63.2625C219.941 62.2886 219.291 61.3911 218.527 60.5944V60.5059H222.157V60.5761C221.959 61.3423 222.322 62.1848 222.905 63.2045L224.648 66.2999H224.743L226.586 63.2136C227.276 62.0414 227.588 61.2812 227.46 60.5669L227.484 60.5059Z" fill="#ffffff"></path>
  <path d="M73.1218 63.958H59.1953V66.797L60.6881 67.5877V87.183H73.1218C73.9185 87.18 74.5627 86.5328 74.5627 85.736V65.3989C74.5566 64.6052 73.9155 63.9611 73.1218 63.958Z" fill="#ffffff"></path>
  <path d="M96.4377 63.958C95.641 63.9611 94.9938 64.6082 94.9907 65.405V86.3222C94.9907 92.4642 90.0118 97.4462 83.8667 97.4462H62.4824C64.772 101.28 68.9053 103.637 73.3714 103.652H96.1385C103.175 103.652 108.878 97.9499 108.878 90.9134C108.878 90.9043 108.878 90.8982 108.878 90.889V67.5816L110.376 66.7909V63.958H96.4377Z" fill="#ffffff"></path>
  <path d="M82.3479 56.3477H41.9941V59.1806L44.0669 60.2765V91.1821L41.9941 92.2781V95.111H82.3479C87.6627 95.111 91.9731 90.8005 91.9731 85.4858V65.9729C91.9731 60.6581 87.6627 56.3477 82.3479 56.3477ZM77.9795 86.2062C77.9795 88.1081 76.4379 89.6497 74.536 89.6497H57.2119V61.5495H74.536C76.4379 61.5495 77.9795 63.0911 77.9795 64.9929V86.2062Z" fill="#ffffff"></path>
</svg>
