<?xml version="1.0" encoding="UTF-8"?>
<svg xmlns="http://www.w3.org/2000/svg" version="1.2" viewBox="0 0 290 160" width="290" height="160">
  <title>logo-01-1-svg</title>
  <style>
		.s0 { fill: #ffffff } 
	</style>
  <path fill-rule="evenodd" class="s0" d="m77.9 72.1v18.3h-7.7v-18.3c0-3.1-2.5-5.7-5.7-5.7-3.1 0-5.6 2.6-5.6 5.7v18.3h-7.7v-18.3c0-3.1-2.5-5.7-5.6-5.7-3.2 0-5.7 2.6-5.7 5.7v18.3h-7.9v-18.3c0-7.5 6-13.6 13.4-13.6 3.6 0 7 1.5 9.5 4 5.3-5.3 13.8-5.3 19 0 2.6 2.5 4 6 4 9.6zm119.7 5.8c0 7.5-5.9 13.5-13.3 13.5-7.4 0-13.3-6-13.3-13.5v-18.2h7.7v18.2c0 3.2 2.5 5.8 5.6 5.8 3.1 0 5.7-2.6 5.7-5.8v-18.2h7.7v18.2zm39.7 10.1l-11-28.3h8.4l7 18.8 7.8-18.8h8.4l-17.9 41.8h-8.4zm-81.7 3.5c-8.9 0-16.2-7.3-16.2-16.3 0-9 7.3-16.4 16.2-16.4 3.8 0 7.5 1.4 10.4 3.9l-5 6c-1.5-1.3-3.4-2-5.4-2q0 0 0 0c-4.6 0-8.4 3.8-8.4 8.5 0 4.7 3.8 8.4 8.4 8.4 2 0.1 3.9-0.7 5.4-2l5.1 5.9c-3 2.5-6.7 3.9-10.5 4zm-50.4-10.8l5.4 5.5c-3.4 3.4-7.4 5.2-12 5.2-8.9 0-16.1-7.3-16.1-16.3 0-9.1 7.4-16.3 16.3-16.3 4 0 7.6 1.5 10.2 4.4 2.9 2.9 4.2 7.1 3.9 11.6q-0.2 1.8-0.7 3.6h-21.2c1.3 3.2 4.4 5.2 7.8 5.2 2.4 0 4.5-0.9 6.4-2.9zm-14.2-8.5h14.1c-0.2-1.4-0.8-2.6-1.7-3.6-1.2-1.3-2.7-1.9-4.7-1.9-3.4 0-6.5 2.2-7.7 5.5zm40.4-4.3c-3.9 1-5.3 3.4-5.3 7.9v14.6h-7.7v-14.7c0-4.3 0.4-6.7 1.3-8.5 0.7-1.6 1.9-3.3 4.7-4.9 2.4-1.3 6.4-2.3 12.4-3.5v8q-2.7 0.4-5.4 1.1zm85.2 0c-4 1-5.3 3.4-5.3 7.9v14.6h-7.7v-14.7c0-4.3 0.3-6.7 1.3-8.5 0.7-1.6 1.9-3.3 4.7-4.9 2.4-1.3 6.4-2.3 12.4-3.5v8q-2.7 0.4-5.4 1.1z"></path>
</svg>
